# xmcd CD database file
#
# Track frame offsets:
#	150
#	14877
#	43188
#	71590
#	94102
#	106292
#	129841
#	150024
#	175137
#	197040
#	219434
#	251010
#	269284
#
# Disc length: 3914 seconds
#
# Revision: 0
# Processed by: cddbd v1.5.2PL0 Copyright (c) Steve Scherf et al.
# Submitted via: ACXtractor (MTCDDB.DLL V2003.07.15)
#
DISCID=af0f480d
DTITLE=Mark Jeghers - The Bluez Projekt: Evaluation Disc 1
DYEAR=2010
DGENRE=Blues
TTITLE0=Before You Accuse Me
TTITLE1=Bromophenol Blues
TTITLE2=The Cool 23rd
TTITLE3=Down In The Bottom
TTITLE4=Terraplane Blues
TTITLE5=Have You Ever Been Mistreated
TTITLE6=John the Revelator
TTITLE7=Stink Butt Doggy Blues
TTITLE8=Goin' Down South
TTITLE9=Red House
TTITLE10=Sliding Grace
TTITLE11=Baby What You Want Me To Do
TTITLE12=Stormy Monday
EXTD=The Bluez Projekt: Evaluation Disc 1 ID3G:   0 YEAR: 2010
EXTT0=
EXTT1=
EXTT2=
EXTT3=
EXTT4=
EXTT5=
EXTT6=
EXTT7=
EXTT8=
EXTT9=
EXTT10=
EXTT11=
EXTT12=
PLAYORDER=
